<svg xmlns="http://www.w3.org/2000/svg" width="392" height="349" viewBox="0 0 392 349"><defs><linearGradient id="a" x1="107.407%" x2="18.634%" y1="50%" y2="50%"><stop offset="0%" stop-color="#FBDFDE" stop-opacity="0"/><stop offset="100%" stop-color="#FF5B58"/></linearGradient></defs><g fill="none" fill-rule="evenodd" transform="translate(-39 -1)"><path fill="#C2EBFF" d="M414.525 161.7c12.374-6.283 18.813-18.401 14.381-27.068-4.432-8.666-18.056-10.6-30.43-4.317-12.375 6.282-18.814 18.4-14.382 27.067 4.432 8.667 18.056 10.6 30.43 4.317zm-35.681-96.08c-6.66-67.734-116.902-69.898-227.754 5.676C40.238 146.87 42.264 249.741 64.284 274.72c22.02 24.977 78.46 35.493 182.325-6.246 103.864-41.738 138.895-135.118 132.235-202.852z"/><path d="M1 1h450v350H1z"/><path fill="#C2EBFF" d="M90 147.535c32.119-29.074 159.088-133.214 230.336-100.03 70.223 32.706-7.159 79.043-9.578 109.748 78.058-14.256 95.742 59.942 73.351 90.118-32.96 44.42-74.772 68.152-121.5 77.571l-3.34.661c-6.943 1.34-23.846 3.947-34.096-6.433-4.564-3.238-3.828-17.598-.47-22.272-9.943 7.078-26.665 15.809-40.797 22.272l-8.795 4.015c-31.571 14.345-56.236 24.465-91.51 26.613l-1.207.07c-13.732.759-29.704-1.668-38.043-16.03-6.424-11.062-6.1-26.302-1.937-38.353 4.163-12.05 11.575-21.62 18.844-30.926-7.651-46.814 1.93-85.822 28.742-117.024z"/><path stroke="#2955AF" stroke-linecap="round" stroke-linejoin="round" stroke-width="2" d="M301.899 236.422c7.895-33.913 10.835-47.245 12.979-54.526 6.291 5.103 17.518 7.52 29.688 3.657.972 48.235-.314 59.223-3.711 75.21-3.397 15.985-15.837 26.603-27.46 26.647-12.206.045-14.749-7.288-18.2-22m-83.578 31.766l2.912 40.191m28.641-40.191v39.58m-98.167-38.412v26.879m146.666-29.8v27.463m-78.393-13.732h23.794M221.915 96.948l-20.052 1.706c-17.632 6.29-57.345 11.239-70.031 36.462-7.264 14.442-45.987 103.738-40.811 133.578 5.85 25.45 33.206 31.337 55.923 23.638m164.699-99.08c-2.043-7.739-19.369-73.227-37.044-81.616-17.675-8.39-28.275-8.756-37.446-11.863"/><path stroke="#2955AF" stroke-linecap="round" stroke-linejoin="round" stroke-width="2" d="M213.146 285.866c1.077 15.267-4.462-39.29-19.096-183.093l19.096 183.093zm32.3-166.226c-.292.812.738 142.535 1.897 173.55m-60.07-187.194c-.715.698-4.638 9.542-11.77 26.532l17.145 17.824-12.821 21.266 29.316 118.479m45.468-184.891l13.144 24.902-6.763 18.113 14.828 20.102-25.241 117.06"/><path stroke="#979797" d="M293.37 276.637c-2.494 0-4.515-1.013-4.515-2.261 0-1.249 2.021-2.26 4.515-2.26 2.493 0 4.514 1.011 4.514 2.26 0 1.248-2.02 2.26-4.514 2.26z"/><path fill="#FE9DA1" d="M170.8 192.093h38.753v102.704h-39.51a8 8 0 01-7.995-7.75l-.004-.32.756-86.704a8 8 0 018-7.93z"/><path fill="#FFBABD" d="M201.693 192.093h98.19a8 8 0 018 8v86.704c0 4.418-3.583 8-8 8h-98.19a8 8 0 01-8-8v-86.704a8 8 0 018-8z"/><path fill="#FFF" d="M243.386 267.268h40.178v4.235h-40.178zm0 8.47h21.147v4.236h-21.147z"/><path stroke="#2955AF" stroke-width="2" d="M162.91 283.912c-2.202 5.652-6.64 8.562-13.313 8.729-10.01.25-14.377-11.157-16.674-22.941l-.124-.664c-1.923-10.755.183-22.642 9.931-22.887 6.683-.263 13.41 12.325 20.18 37.763z"/><path fill="#FFF" d="M247.386 202.68h35.35a4 4 0 014 4v35.412a4 4 0 01-4 4h-35.35a4 4 0 01-4-4V206.68a4 4 0 014-4z"/><path fill="#2855AF" d="M250.365 207.975v1.64h1.691v1.642h-1.691v3.83h1.691v7.658h-1.691v3.282h1.691v3.283h2.256v-3.283h2.82v-3.282h3.383v1.641h1.692v-4.923h1.127v3.282h2.256v-1.006h2.115l-.001 1.006h1.27v-2.735h-1.692v-1.641h1.691v1.094h1.692v-1.094h2.256v-1.641h2.255v-1.642h1.128v1.642h1.692v6.017h-1.692v-1.094h-2.256v-1.641h-3.383v1.641h2.256v1.094h.563v3.282h2.256v-1.64h1.128v1.64h2.255v-3.282h1.269v-2.065h2.115v3.706h-1.128v1.641h1.128v1.642h-1.692v1.64h-1.692v1.095h-1.127v3.282h1.127v-.547h3.384v1.641h-3.384v2.735h1.692v-1.094h1.692v1.641h-1.692v1.095h1.692v1.64h-33.834v-32.822h1.692zm21.992 14.77h-1.692v4.376h-1.692v-1.64h-1.691l-.001-1.624h-1.691v3.264h-2.256v-1.094h-1.127v1.094h-1.692v2.189h-1.692v4.376h-1.692v-6.017h-1.691v8.752h1.691v2.736h3.384v-1.642h1.692v1.642h5.639v-1.642h-4.512v-2.735h-1.127l-.001-1.394h-1.903v-3.176h2.115l-.001 2.929h1.481v.547h1.692v-3.282h-2.256v-1.094h3.948v-1.641h1.691v1.64h1.692v-1.64h1.692v-4.924zm6.766 14.77h-1.127v1.642h1.127v-1.642zm-17.762-3.07v2.118h-2.115v-2.118h2.115zm14.38-6.776h-2.257v1.64h-1.127v1.095h1.127v2.735h-2.819v1.641h1.692v1.094h3.383v-5.47h1.128v-1.094h-1.128v-1.641zm-6.768 5.47h-1.127v2.735h1.127v-2.735zm1.692-2.735h-1.692v2.735h1.692v-2.735zm11.842-.194v2.117h-2.115v-2.117h2.115zm-21.992-4.183h-1.692v1.094h1.692v-1.094zm-.212-7.464v3.176h-5.075v1.588h-1.691v1.589h-1.692v-1.589h1.128v-3.176h4.51v-1.588h2.82zm-3.172-10.588v3.176h-1.492v1.059h2.239v-1.059h1.12v-3.176h1.679v1.588h1.679v1.588h-1.68v1.059h1.68v-1.059h1.68v1.588h-1.68v2.647h5.597v1.589h-2.239v1.588h-1.12v-1.588h-3.917v-2.647h-5.038v-1.589h-1.68v-1.588h1.058v-3.176h2.114zm0 8.47v2.118h-2.114v-2.118h2.114zm20.338-8.47v1.588h2.24v-1.588h1.678v1.588h1.12v1.588h-2.799v1.588h2.799v1.589h-2.799v1.058h2.799v1.589h-3.359v-1.589h-1.679v-4.235h-1.68v1.588h-1.678v-3.176h1.679v-1.588h1.68zm-6.717 0v1.588h1.68v3.176h1.679v1.589h-1.68v1.058h-4.478v-1.058h-3.918v-1.589h4.478v-4.764h2.24zm-3.047 0v2.117h-2.115v-2.117h2.115zm-13.957 0v1.64h-1.692v-1.64h1.692zm20.363 0v1.588h-1.68v-1.588h1.68zm-10.076 0v1.588h-1.68v-1.588h1.68z"/><path fill="#FFF" d="M240.098 93.898c2.782-.357 6.004-1.404 9.666-3.14 5.493-2.606 16.504-12.971 11.42-41.433-3.536-17.11-6.124-28.488-7.765-34.133l-49.032-2.59-4.64 39.924c-6.857-2.644-10.926-1.645-12.207 2.998-1.921 6.963 1.855 15.778 13.98 15.765-.037 12.706-.291 20.469-3.63 29.583-3.34 9.114 21.467 24.747 30.04 24.108 9.198 1.093 14.547-5.514 14.235-20.244-1.378-3.246-2.067-6.858-2.067-10.838z"/><path fill="#2955AF" d="M211.747 77.985c8.269 11.558 17.79 16.582 28.563 15.074l.432-.064c1.591-.248 2.913-.301 3.998-.197-1.665.55-3.212.916-4.642 1.1 0 3.98.689 7.592 2.067 10.838.017.775.017 1.527.003 2.257-.709.333-1.369.457-1.919.303-12.792.374-22.292-9.396-28.502-29.31z" opacity=".159"/><path fill="#2955AF" d="M206.837 23.574c0 5.074 2.2 15.057-2.383 19.783-1.52 2.51.45 5.403-4.208 9.055-4.781-1.331-8.788-.838-12.02 1.48-7.073-22.07-5.411-34.616 4.986-37.639l-.007-.234c-.11-2.093-1.433-8.516 2.221-9.992 2.186.714.496 11.156 3.199 7.268l.332-.49c3.09-4.441 12.105-13.113 20.82-10.96 8.802 2.175 20.198 9.984 33.065 7.419l.586-.124c8.739-1.952 10.1 7.109 4.082 27.182l-4.972-15.88-1.586.314c-20.994 4.103-35.699 5.043-44.115 2.818z"/><path stroke="#2955AF" stroke-linecap="round" stroke-linejoin="round" stroke-width="2" d="M200.34 53.207c-6.857-2.644-10.926-1.644-12.207 2.998-1.921 6.964 1.855 15.778 13.98 15.765-.037 12.707-.291 20.469-3.63 29.583-3.34 9.114 16.739 23.747 27.974 23.491 11.236-.256 18.048-6.666 16.301-19.627-1.378-3.245-2.067-6.858-2.067-10.838 2.782-.357 6.005-1.404 9.666-3.14 5.493-2.605 16.504-12.97 11.42-41.433"/><path stroke="#2855AF" stroke-linecap="round" stroke-linejoin="round" stroke-width="2" d="M199.723 60.06c-2.065-3.036-4.604-4.554-7.616-4.554m50.67 18.565c-3.858.84-6.65.2-8.378-1.919"/><path fill="#2855AF" d="M251.595 49.98c-1.482.389-2.832-1.262-3.317-3.634-.485-2.371-.548-4.655 1.349-4.655 1.835 0 1.656 1.937 2.234 3.871l.244.767c.548 1.765.828 3.3-.51 3.652zM227 53.87c-1.48.388-2.83-1.263-3.315-3.635l-.079-.405c-.407-2.22-.361-4.25 1.427-4.25 1.835 0 1.657 1.937 2.235 3.87l.244.768c.547 1.765.827 3.3-.511 3.651zm.65-21.948c-.43-1.461-2.01-1.567-6.542-.7-4.532.869-4.996 2.587-4.792 3.245.204.658 1.788 1.12 5.62.377l.88-.176c3.301-.685 5.231-1.399 4.834-2.746zm23.723-3.391l-.057-.2c-.285-.89-.907-1.093-5.175-.724-4.574.395-4.773 2.262-4.574 2.853.194.573 1.642 1.092 5.15.513l.324-.056c3.742-.667 4.604-1.328 4.332-2.386z"/><path stroke="#2855AF" stroke-width="2" d="M226.026 61.103c-6.099 0-11.043-4.926-11.043-11.002 0-6.077 4.944-11.003 11.043-11.003 6.1 0 11.044 4.926 11.044 11.003 0 6.076-4.944 11.002-11.044 11.002zm25.901-5.153c-5.749 0-10.409-4.644-10.409-10.37 0-5.728 4.66-10.37 10.409-10.37 5.748 0 10.409 4.642 10.409 10.37 0 5.726-4.66 10.37-10.41 10.37z"/><path stroke="#2855AF" stroke-linecap="round" stroke-linejoin="round" stroke-width="2" d="M214.58 50.474s-16.509.406-17.765.673"/><path fill="#FFF" stroke="#2855AF" stroke-linecap="round" stroke-linejoin="round" stroke-width="2" d="M238.674 43.006c4.302 9.94 6.845 16.612 7.63 20.017 1.177 5.11-5.49 4.038-7.527 3.751"/><path stroke="#2955AF" stroke-linecap="round" stroke-linejoin="round" stroke-width="2" d="M242.402 45.972c-2.425-.204-4.456.287-6.093 1.473M123.164 233.76c12.602 1.898 20.278 6.435 23.028 13.61"/><path fill="#FFF" d="M317.204 175.295c-5.47-5.586-4.174-34.511-.607-43.679 3.566-9.167 2.33-22.856 4.894-28.484 12.678-2.815 8.86 16.986 10.3 20.527 1.44 3.54 8.506-3.487 18.929 10.249 6.948 9.156 6.614 22.992-1.003 41.505-11.467 6.808-22.305 6.768-32.513-.118z"/><path stroke="#2955AF" stroke-width="2" d="M317.204 175.295c-5.47-5.586-4.174-34.511-.607-43.679 3.566-9.167 2.33-22.856 4.894-28.484 12.678-2.815 8.86 16.986 10.3 20.527 1.44 3.54 8.506-3.487 18.929 10.249 6.948 9.156 6.614 22.992-1.003 41.505-11.467 6.808-22.305 6.768-32.513-.118z"/><path fill="#C2EBFF" stroke="#2955AF" stroke-linecap="round" stroke-linejoin="round" stroke-width="2" d="M315.7 174.256c-2.57 4.103-3.26 8.036-2.07 11.797.867 2.74 21.838 10.69 31.722 4.393 2.07-2.899 3.005-9.537 1.501-12.779-8.817 3.771-19.202 2.634-31.152-3.41z"/><circle cx="369" cy="221.507" r="14" stroke="#FFF" stroke-width="2"/><ellipse cx="74.241" cy="170.499" stroke="#FE9DA1" stroke-width="2" rx="11.905" ry="11.923"/><path stroke="#FFF" stroke-linecap="round" stroke-linejoin="round" stroke-width="2" d="M362 219.999l5.992 8.508 8.008-14"/><path stroke="#FE9DA1" stroke-linecap="round" stroke-linejoin="round" stroke-width="2" d="M68.274 169.196l4.989 7.239 6.667-11.911"/><ellipse cx="138.193" cy="77.963" stroke="#2955AF" stroke-width="2" rx="14.171" ry="14.192"/><path stroke="#2855AF" stroke-linecap="round" stroke-linejoin="round" stroke-width="2" d="M131.179 76.432l5.864 8.51 7.839-14.003"/><path fill="#FFF" stroke="#2C68E1" stroke-linecap="round" stroke-linejoin="round" stroke-width="3" d="M363.758 128.098c-18.408.981-14.886-7.092-14.886-12.866s15.854-8.234 24.223-8.234c8.37 0 10.398 3.533 10.398 9.307l-.004.518c-.09 5.555-1.875 10.324-19.73 11.275z"/><path fill="#FFD2D2" d="M369.306 107.205v18.551h-28.194v-18.551z"/><path fill="url(#a)" d="M405.51 133.023c-8.339-2.783-48.748-6.797-54.517-9.797-2.744-2.003-1.893-13.058.316-13.496 17.678-3.508 49.487-3.56 54.468-4.167 2.064-.252 16.609-3.236 16.444 13.21-.116 11.624-5.687 16.374-16.711 14.25z" opacity=".516"/><path fill="#C3E6FF" stroke="#4A84E8" stroke-linecap="round" stroke-linejoin="round" stroke-width="2" d="M324.625 115.74c-1.764 3.516 1.03 4.904 3.66 7.097 1.9-1.158 4.082-1.344 6.513-.087 0 0 7.207 3.975 3.19 11.582-3.004 5.692-9.747 20.693-13.808 21.539-.138 1.622-.265 3.098-.422 4.34a9.378 9.378 0 005.61 6.87c3.301 1.382 7.75 1.434 10.16-.473 2.412-1.908 2.62-5.453-.522-8.254-1.245-1.11-1.81-2.757-1.481-4.35 1.932-9.328 8.837-18.833 11.118-19.47-1.27-2.047-2.596-.15 4.004-7.044.424-.442-4.789-1.874-4.248-2.384-10.148-3.203-22.475-11.953-23.774-9.365z"/><path fill="#3C78E6" d="M346.61 137.313c.203-.06.377-.06.505.025 1.855 1.221 4.792-.36 4.122-2.665-.041-5.21 6.64-7.938 6.64-7.938.305-1.107-3.527.746-7.51-.592-9.633 9.668-5.209 8.678-3.756 11.17z"/><path fill="#C3E6FF" stroke="#2955AF" stroke-linecap="round" stroke-linejoin="round" stroke-width="2" d="M336.85 131.261c4.019-7.611-3.194-11.59-3.194-11.59-2.434-1.257-4.617-1.07-6.52.088 1.78 1.482 3.485 3.333 3.654 6.458-6.152 7.518-7.1 18.838-7.762 26.597 4.065-.845 10.814-15.856 13.822-21.553"/><path fill="#C3E6FF" stroke="#2955AF" stroke-linecap="round" stroke-linejoin="round" stroke-width="2" d="M380.735 108.455c-3.69-3.748-13.818-3.605-23.45-3.407-17.1.352-33.578 4.504-33.277 12.879.39 10.838 44.017 14.763 56.656 6.664-8.56 1.03-23.757.877-29.882-.753-1.8-4.368-2.21-10.232 0-14.404 2.42-1.026 16.069-1.542 19.22-1.587 3.15-.044 6.922-.198 10.733.608z"/><path fill="#FFF" d="M319.78 142.7c-.72-4.999 1.07-8.367 5.371-10.105 6.453-2.606 12.15-4.03 17.129-4.321 4.978-.29 17.437.495 18.47 5.514.89 4.315-.12 4.244-.322 7.62-.032.55 1.338 4.48.77 7.322-.57 2.842-1.655 4.975-2.308 10.557-.6 5.12-5.578 8.525-6.216 10.818-1.178 4.238-3.721 7.682-15.11 6.684-11.387-.997-18.516-4.599-18.432-9.273.056-3.116 1.384-4.049 3.982-2.799-2.896-1.147-4.312-2.88-4.249-5.198.064-2.319.633-4.22 1.708-5.702-1.118-.48-1.666-1.602-1.643-3.367-.261-2.877.023-5.46.85-7.75z"/><path stroke="#2955AF" stroke-linecap="round" stroke-linejoin="round" stroke-width="2" d="M319.78 142.7c-.72-4.999 1.07-8.367 5.371-10.105 6.453-2.606 12.15-4.03 17.129-4.321 4.978-.29 17.437.495 18.47 5.514.89 4.315-.12 4.244-.322 7.62-.032.55 1.338 4.48.77 7.322-.57 2.842-1.655 4.975-2.308 10.557-.6 5.12-5.578 8.525-6.216 10.818-1.178 4.238-3.721 7.682-15.11 6.684-11.387-.997-18.516-4.599-18.432-9.273.056-3.116 1.384-4.049 3.982-2.799-2.896-1.147-4.312-2.88-4.249-5.198.064-2.319.633-4.22 1.708-5.702-1.118-.48-1.666-1.602-1.643-3.367-.261-2.877.023-5.46.85-7.75zm.556-.163c14.494-2.394 23.808-3.663 27.943-3.807m-26.866 15.278l26.021-.74"/><path stroke="#2955AF" stroke-linecap="round" stroke-linejoin="round" stroke-width="2" d="M325.72 165.114l3.258.286c7.399.648 12.725 1.114 15.977 1.4"/><path fill="#FFF" d="M163.47 228.572c4.827-4.006 9.03-6.513 12.606-7.52 6.81-.98 14.988-.166 17.962-.166s16.331 7.312 16.297 10.947c-.59 9.348-9.079 1.615-15.467-.392l.4.136c5.703 1.983 21.102 9.235 21.302 13.53-.395 6.571-5.662 6.784-15.802.64l.856.432c7.422 3.811 11.17 7.301 11.244 10.47-.16 4.795-4.6 5.068-13.323.82-7.563 1.466-14.463 3.198-20.7 5.195l.606.011c5.552.062 27.432-.53 27.137 6.196-.35 7.989-23.81 2.673-31.515 8.904-4.937 3.315-9.39 8.381-18.398 8.381-9.007 0-16.283-13.015-16.283-21.83 0-8.666 4.944-23.972 9.442-31.356l.232-.375c4.559-7.23 1.842-20.906 4.854-21.138 6.495-.233 9.345 5.472 8.55 17.115z"/><path stroke="#2955AF" stroke-linecap="round" stroke-linejoin="round" stroke-width="2" d="M163.15 228.454c-5.096 5.411-9.188 11.25-12.276 17.517m56.563-9.761l-9.737-5.037-18.322.665m29.899 18.675l-10.477-5.096-18.321.665"/></g></svg>