<svg xmlns="http://www.w3.org/2000/svg" xmlns:xlink="http://www.w3.org/1999/xlink" width="363" height="459" viewBox="0 0 363 459">
    <defs>
        <linearGradient id="a" x1="50%" x2="66.82%" y1="0%" y2="55.658%">
            <stop offset="0%" stop-color="#B62024"/>
            <stop offset="100%" stop-color="#B62024" stop-opacity="0"/>
        </linearGradient>
        <filter id="b" width="131.4%" height="118.2%" x="-15.7%" y="-9.1%" filterUnits="objectBoundingBox">
            <feGaussianBlur in="SourceGraphic" stdDeviation="4"/>
        </filter>
        <linearGradient id="c" x1="50%" x2="66.82%" y1="0%" y2="55.658%">
            <stop offset="0%" stop-color="#0B4178"/>
            <stop offset="100%" stop-color="#2E78C5" stop-opacity="0"/>
        </linearGradient>
        <filter id="d" width="131.4%" height="118.2%" x="-15.7%" y="-9.1%" filterUnits="objectBoundingBox">
            <feGaussianBlur in="SourceGraphic" stdDeviation="4"/>
        </filter>
        <linearGradient id="e" x1="50%" x2="65.68%" y1="0%" y2="55.658%">
            <stop offset="0%" stop-color="#B62024"/>
            <stop offset="100%" stop-color="#B62024" stop-opacity="0"/>
        </linearGradient>
        <filter id="f" width="132.6%" height="118.2%" x="-16.3%" y="-9.1%" filterUnits="objectBoundingBox">
            <feGaussianBlur in="SourceGraphic" stdDeviation="4"/>
        </filter>
        <radialGradient id="h" cx="-9.303%" cy="69.672%" r="169%" fx="-9.303%" fy="69.672%" gradientTransform="matrix(.48615 -.24468 .87387 .13612 -.657 .58)">
            <stop offset="0%" stop-color="#FFF" stop-opacity=".5"/>
            <stop offset="100%" stop-color="#FFF" stop-opacity="0"/>
        </radialGradient>
        <path id="g" d="M0 52.632l73.684-26.316v236.842L0 289.474z"/>
        <radialGradient id="j" cx="-11.864%" cy="116.159%" r="141.209%" fx="-11.864%" fy="116.159%" gradientTransform="scale(1 .56) rotate(-63.375 .62 1.618)">
            <stop offset="0%" stop-color="#FFF" stop-opacity=".5"/>
            <stop offset="100%" stop-color="#FFF" stop-opacity="0"/>
        </radialGradient>
        <path id="i" d="M0 52.632l73.684-26.316v105.263L0 157.895z"/>
    </defs>
    <g fill="none" fill-rule="evenodd">
        <path fill="url(#a)" d="M73.684 52.316L150 26v105.263L73.684 157.58z" filter="url(#b)" opacity=".251" transform="translate(127 317)"/>
        <path fill="url(#c)" d="M150 26.316L226.316 0v105.263L150 131.58z" filter="url(#d)" opacity=".231" transform="translate(127 317)"/>
        <path fill="url(#e)" d="M0 52.316L73.684 26v105.263L0 157.58z" filter="url(#f)" opacity=".251" transform="matrix(-1 0 0 1 200.684 317)"/>
        <g>
            <path fill="#2E78C5" d="M278.684 113.632L355 87.316v236.842l-76.316 26.316z"/>
            <g transform="matrix(-1 0 0 1 278.684 61)">
                <use fill="#2D94FF" xlink:href="#g"/>
                <use fill="url(#h)" xlink:href="#g"/>
            </g>
            <path fill="#7BBCFF" d="M278.684 113.632L205 87.316 281.316 61 355 87.316z"/>
        </g>
        <g>
            <path fill="#B62024" d="M202.684 271.632L279 245.316v105.263l-76.316 26.316z"/>
            <g transform="matrix(-1 0 0 1 202.684 219)">
                <use fill="#ED2B31" xlink:href="#i"/>
                <use fill="url(#j)" xlink:href="#i"/>
            </g>
            <path fill="#FF7377" d="M202.684 271.632L129 245.316 205.316 219 279 245.316z"/>
        </g>
        <g transform="translate(243)">
            <ellipse cx="37" cy="86.5" fill="#000" fill-opacity=".1" rx="34" ry="10.5"/>
            <path fill="#010b48" d="M1.744 68.332l.607-2.061 6.55-3.668 21.795 5.729 9.727 5.08 24.964-21.238c2.953.316 3.691 3.294 2.215 8.933-2.215 8.46-5.923 15.938-10.98 20.044-3.37 2.737-5.79 4.146-7.26 4.226l-11.475-.98L1.744 68.333z"/>
            <path fill="#FFD0BF" d="M43.323 87.457l-2.9-.993 2.249-3.43 4.918 1.06z"/>
            <path fill="#1F51B2" d="M28.017 50.4c-1.197-10.246-.89-16.75.92-19.512 2.714-4.144 10.646-7.97 15.812-7.97 5.166 0 12.95 2.018 14.639 3.419 1.126.933 2.617 8.954 4.47 24.063L36.361 73.412l-7.425-8.63-.92-14.382z"/>
            <path fill="#FFD0BF" d="M37.429 61.589l-6.733 2.706 2.94 5.271 6.021-3.988z"/>
            <path fill="#B5B5B5" d="M33.8 72.088h5.857l1.493-2h-7.513z"/>
            <path fill="#467BE2" d="M58.388 26.337c-4.252 0-5.795 3.296-5.795 5.63 0 1.557.595 6.957 1.786 16.198L36.293 60.604l3.2 6.172 22.614-14.602c.448-4.316.448-8.24 0-11.772-.671-5.297.533-14.065-3.719-14.065z"/>
            <path fill="red" d="M39.695 88.733C14.963 82.229 2.037 77.833.915 75.544-.768 72.112-.214 64.776 3.278 64.776c2.327 0 11.87 3.89 28.627 11.673 11.37-10.057 17.914-15.888 19.633-17.492 2.579-2.406 8.62-11.196 14.265-7.778 5.644 3.418-3.306 16.434-8.785 19.923-3.654 2.325-8.03 5.584-13.129 9.777.25 2.04-.124 3.61-1.121 4.71a58.609 58.609 0 0 1-3.073 3.144z"/>
            <path fill="#DBDBDB" d="M5.615 67.96l-2.08-19.13a2 2 0 0 1 2.118-2.213l26.313 1.71a2 2 0 0 1 1.857 1.774l2.261 20.156a2 2 0 0 1-2.193 2.213L7.398 69.733a2 2 0 0 1-1.783-1.774z"/>
            <ellipse cx="18.172" cy="59.092" fill="#B5B5B5" rx="2.5" ry="3" transform="rotate(-10 18.172 59.092)"/>
            <path fill="#F9B5A0" d="M40.122 26.096l.028-5.576 6.44-2.61v7.44c-.486 1.966-1.435 2.948-2.846 2.948-1.412 0-2.62-.734-3.622-2.202z"/>
            <path fill="#FFD0BF" d="M41.15 24.427c-1.894 0-5.647-1.679-7.35-9.158-1.702-7.48-.82-8.078.87-10.166 1.69-2.088 10.617-4.252 12.24 0 1.622 4.252 3.5 9.33 1.75 13.08s-5.617 6.244-7.51 6.244z"/>
            <path fill="#ED2B31" d="M30.816.125c2.047.914 3.692 1.22 4.935.914C37.616.582 42.27-.333 43.625.125c.905.304 1.395.551 1.473.74 2.693-.252 4.114 1.037 4.264 3.865.149 2.828.411 6.409.787 10.742l-2.076.684c1.063-2.783 1.063-4.115 0-3.997-1.063.117-1.584.674-1.564 1.67-.812-4.707-2.524-6.776-5.135-6.208-3.916.853-8.945 1.181-9.958-.6-.676-1.187-.876-3.486-.6-6.896z"/>
            <path fill="#0C203B" d="M43.323 87.457l4.267-3.363c3.875.855 6.852 1.283 8.933 1.283 3.12 0 6.336-1.52 4.728 2.08-1.607 3.6-3.912 5.54-7.507 4.208-2.397-.888-5.87-2.29-10.421-4.208zM18.308 88.733c-2.485.025-3.966-1.094-4.442-3.356-.715-3.393.023-4.409 1.07-4.409 1.049 0 4.979 1.679 6.958.84 1.32-.56 3.122-.84 5.408-.84l4.492 3.126-13.486 4.639z"/>
            <path fill="#FFD0BF" d="M27.302 80.968l2.598-1.382 3.737 3.247-1.843 1.261z"/>
        </g>
        <g>
            <path fill="#0C203B" fill-rule="nonzero" d="M28.578 285.714l1.843-3.096a3.5 3.5 0 0 1 4.752-1.243l5.493 3.158a3.5 3.5 0 0 1 1.445 4.473l-1.508 3.346 2.735 1.233 1.508-3.346a6.5 6.5 0 0 0-2.685-8.306l-5.492-3.159a6.5 6.5 0 0 0-8.825 2.309L26 284.179l2.578 1.535z"/>
            <path fill="#ED2B31" d="M1.1 297.326l13.078-20.458a3 3 0 0 1 4.163-.9l34.256 22.272a3 3 0 0 1 .887 4.14l-12.852 19.937a3 3 0 0 1-4.122.912L2.028 301.48a3 3 0 0 1-.928-4.153z"/>
            <g>
                <path fill="#1111FF" d="M45.595 352.341l41.47-8.166 6.92-18.281 12.125 7.01c1.48 7.384 3.599 14.157 6.355 20.316 2.755 6.159 6.186 11.788 10.291 16.888l2.93-1.357-10.256-42.857-16.726-20.35h-22.65l2.354 30.198c-6.569 1.035-12.606 2.693-18.11 4.974a65.537 65.537 0 0 0-15.223 8.838l.52 2.787z"/>
                <path fill="white" d="M48.621 363.81c-.635.441-2.999-3.49-7.091-11.792l3.545-2.464c3 9.063 4.181 13.815 3.546 14.256zM125.686 373.253l-2.93-3.145c7.91-5.43 12.114-7.879 12.61-7.346.496.532-2.73 4.03-9.68 10.49z"/>
                <path fill="red" d="M80.354 309.701c-3.026-1.102-5.35-2.487-6.974-4.157-1.624-1.669-2.861-3.946-3.713-6.831l14.461-23.607c-6.902-1.382-13.53-1.746-19.88-1.095-6.352.652-11.505 2.226-15.46 4.722l-3.63-4.722c7.498-5.8 15.07-9.596 22.72-11.386 7.65-1.79 16.297-1.79 25.94 0l9.924 3.635c5.24 7.157 10.635 12.69 16.187 16.597 5.552 3.908 11.868 6.62 18.947 8.135l-1.77 5.494c-7.399-.228-13.418-1.09-18.058-2.587-4.64-1.497-9.287-4.075-13.94-7.736l-2.57 19.381h-7.272c3.058-6.419 5.047-12.458 5.968-18.118.92-5.66.92-11.859 0-18.595l-5.968-1.699c-.052 7.256-1.406 14.676-4.063 22.26-2.657 7.585-6.273 14.354-10.849 20.31z"/>
                <path fill="black" d="M46.244 282.337l3.416-2.678-4.585-6.757-3.545 3.222zM137.15 297.544h3.623l1.671-6.705h-3.568z"/>
                <path fill="#010b48" d="M135.416 305.544c4.794-3.857 8.468-7.641 11.022-11.352 2.553-3.712 4.256-7.742 5.107-12.09l17.002 2.087c-1.035 7.225-3.21 13.635-6.526 19.23-3.317 5.594-7.75 10.333-13.303 14.217l-13.302-12.092z"/>
                <path fill="#FFD0BF" d="M45.075 280.524l-2.049 1.813v1.301H41.53l-3.438 2.946L35 282.337l1.735-4.717h6.291zM142.444 290.839s7.937-3.088 8.953-2.326c.678.507-.974 1.992-4.954 4.455l-2.749 4.576-2.364-.874 1.114-5.831zM96.219 263.054l2.165-6.497c-1.707-5.575-.913-9.187 2.383-10.835 3.295-1.648 6.854-1.648 10.678 0 1.24 4.688 1.24 8.3 0 10.835-1.241 2.535-2.34 4.7-3.3 6.497l-4.233-1.771-3.145 7.05-4.548-5.28z"/>
                <path fill="red" d="M98.384 256.557l2.928-1.456c-1.132-2.289-1.03-3.798.308-4.528 1.337-.729 2.296-.128 2.875 1.803l2.276-1.803c4.268 1.296 7.033.62 8.296-2.029 1.262-2.648 1.741-4.543 1.438-5.684-2.301 1.22-4.776 1.22-7.425 0-3.973-1.83-9.249-.482-10.12 1.626-.872 2.108-4.134 4.138-2.741 8.03.928 2.596 1.65 3.943 2.165 4.041z"/>
                <path fill="" d="M83.293 305.544c2.647 1.15 4.67 1.724 6.067 1.724 1.398 0 3.367-.575 5.906-1.724 3.233-7.215 5.31-12.932 6.228-17.152.92-4.22 1.497-10.694 1.735-19.423.683-1.806.854-2.71.513-2.71-.244 0-1.737-1.243-5.007-2.478-.872-.33-2.511-.715-4.916-1.156l1.447 4.507c-.75 7.793-2.118 14.88-4.107 21.26-1.988 6.38-4.61 12.097-7.866 17.152z"/>
                <path fill="#FF242C" d="M100.003 264.58l-2.544 1.255 1.272 1.714c-4.526 4.303-8.276 6.983-11.25 8.042-2.973 1.059-7.755 1.416-14.344 1.072L70 280.772l3.137 3.29c7.108-.18 12.223-1.277 15.343-3.29 3.12-2.013 6.536-6.42 10.25-13.223l2.764-.788-1.491-2.181z"/>
            </g>
        </g>
    </g>
</svg>
