<svg xmlns="http://www.w3.org/2000/svg" xmlns:xlink="http://www.w3.org/1999/xlink" width="159" height="160" viewBox="0 0 159 160">
    <defs>
        <path id="a" d="M0 .31h158.989v159.372H0z"/>
    </defs>
    <g fill="none" fill-rule="evenodd">
        <g transform="translate(0 .008)">
            <mask id="b" fill="#fff">
                <use xlink:href="#a"/>
            </mask>
            <path fill="#0096DD" d="M120.009 49.922c-.031-4.877-4.47-9.477-9.19-9.525-4.885-.05-9.422 4.59-9.407 9.618.014 4.718 4.734 9.285 9.503 9.192 4.598-.09 9.123-4.71 9.094-9.285m-9.351 13.898c-9.958.02-15.725-8.679-13.49-17.743 2.069-8.395 11.066-12.654 19.273-9.138 1.383.593 2.135.366 3.106-.653 2.733-2.87 5.523-5.69 8.4-8.414 1.118-1.057.935-1.657-.055-2.633-5.117-5.046-10.181-10.145-15.24-15.248-1.756-1.77-3.771-2.156-6.083-1.376-7.527 2.54-15.051 5.094-22.59 7.601-3.626 1.207-6.713 3.178-9.389 5.928-4.827 4.963-9.76 9.821-14.65 14.723A956596.008 956596.008 0 0 0 6.195 90.745c-1.906 1.91-1.916 2.36-.026 4.266 3.014 3.04 6.047 6.06 9.07 9.09 16.421 16.462 32.84 32.927 49.265 49.384 1.84 1.843 2.423 1.854 4.165.108 23.106-23.158 46.233-46.294 69.26-69.53 1.845-1.863 3.447-4.248 4.373-6.691 3.102-8.176 5.84-16.49 8.73-24.747.704-2.01.274-3.816-1.155-5.27-5.372-5.462-10.817-10.853-16.21-16.296-.691-.698-1.166-.636-1.823.033-3 3.053-6.019 6.089-9.072 9.089-.657.645-.532 1.095-.227 1.899.811 2.139 1.754 4.327 1.997 6.566.925 8.548-5.354 15.289-13.884 15.174m22.076-40.935c.536-.506 1-.922 1.44-1.363 6.645-6.655 13.27-13.33 19.958-19.942.656-.648 1.695-1.27 2.557-1.27 1.95-.002 2.958 2.363 1.825 3.988-.358.515-.833.953-1.28 1.401-6.451 6.476-12.908 12.946-19.36 19.42-.443.445-.868.908-1.416 1.484.478.515.883.979 1.316 1.414 5.073 5.088 10.18 10.142 15.213 15.27 3.21 3.27 4.084 7.195 2.617 11.532a1900.548 1900.548 0 0 1-8.117 23.474c-1.228 3.478-3.15 6.58-5.76 9.197-23.2 23.278-46.41 46.544-69.63 69.802-3.24 3.245-7.878 3.16-11.126-.098A189124.705 189124.705 0 0 0 2.438 98.511c-3.229-3.236-3.266-7.899-.02-11.154C25.624 64.086 48.83 40.816 72.053 17.56c2.805-2.81 6.156-4.759 9.921-6.016 7.64-2.551 15.253-5.182 22.91-7.679 4.191-1.366 8.081-.584 11.265 2.517 5.07 4.939 10.017 10.005 15.02 15.014.478.48.98.935 1.565 1.49" mask="url(#b)"/>
        </g>
        <path fill="#0096DD" fill-opacity=".3" d="M110.658 63.828c8.53.115 14.809-6.626 13.884-15.174-.243-2.239-1.186-4.427-1.997-6.566-.305-.803-.43-1.254.227-1.899 3.053-3 6.072-6.035 9.072-9.09.657-.668 1.132-.73 1.824-.032 5.393 5.443 10.837 10.834 16.209 16.297 1.429 1.453 1.86 3.259 1.155 5.27-2.89 8.256-5.628 16.57-8.73 24.746-.926 2.443-2.528 4.828-4.373 6.69-23.027 23.237-46.154 46.373-69.26 69.53-1.742 1.747-2.325 1.736-4.165-.107C48.08 137.036 31.66 120.571 15.24 104.11c-3.023-3.03-6.056-6.05-9.07-9.09-1.89-1.906-1.88-2.355.026-4.266 17.914-17.96 35.83-35.92 53.745-53.878 4.89-4.902 9.823-9.76 14.65-14.722 2.676-2.75 5.763-4.722 9.39-5.928 7.538-2.508 15.061-5.061 22.59-7.601 2.31-.78 4.325-.395 6.081 1.376 5.06 5.102 10.124 10.202 15.24 15.247.99.976 1.174 1.576.056 2.634-2.877 2.723-5.667 5.544-8.4 8.413-.97 1.02-1.723 1.246-3.106.653-8.206-3.515-17.204.744-19.273 9.139-2.235 9.063 3.532 17.762 13.49 17.742"/>
        <path fill="#FFF" d="M120.009 49.93c.03 4.575-4.496 9.196-9.094 9.285-4.769.093-9.489-4.473-9.503-9.192-.015-5.028 4.522-9.667 9.406-9.617 4.722.048 9.16 4.648 9.19 9.524"/>
        <path fill="#0096DD" d="M34.537 98.39l-3.583-3.592 18.589-18.631 3.583 3.591zM40.51 104.376l-3.584-3.591 18.59-18.632 3.582 3.592z"/>
        <path fill="#0096DD" d="M44.093 107.968l-3.584-3.592L59.1 85.744l3.583 3.592zM49.244 113.13l-3.583-3.59L64.25 90.907l3.583 3.591zM55.193 119.094l-3.583-3.592L70.199 96.87l3.583 3.592z"/>
        <path fill="#0096DD" d="M58.678 122.587l-3.583-3.591 18.59-18.632 3.582 3.592zM64.725 128.648l-3.583-3.592 18.59-18.631 3.582 3.591zM68.394 57.272l3.583-3.591 27.725 27.788-3.583 3.592zM62.459 63.22l3.583-3.59 17.436 17.475-3.583 3.591z"/>
    </g>
</svg>
